<svg xmlns="http://www.w3.org/2000/svg" viewBox="0 0 100 100">
  <rect width="100" height="100" fill="#1a1a5c" rx="12"/>
  <!-- Lightbulb body -->
  <path d="M50 12 C32 12 18 26 18 44 C18 54 23 62 30 68 L30 75 C30 77 32 79 34 79 L66 79 C68 79 70 77 70 75 L70 68 C77 62 82 54 82 44 C82 26 68 12 50 12 Z" fill="white"/>
  <!-- Lightbulb base lines -->
  <rect x="34" y="82" width="32" height="4" rx="2" fill="white"/>
  <rect x="38" y="89" width="24" height="4" rx="2" fill="white"/>
  <!-- Rays -->
  <rect x="47" y="2" width="6" height="8" rx="2" fill="white"/>
  <rect x="20" y="18" width="8" height="6" rx="2" fill="white" transform="rotate(-45 24 21)"/>
  <rect x="72" y="18" width="8" height="6" rx="2" fill="white" transform="rotate(45 76 21)"/>
  <!-- 3D Cube inside -->
  <path d="M50 32 L38 40 L38 56 L50 64 L62 56 L62 40 Z" fill="#1a1a5c" stroke="#1a1a5c" stroke-width="1"/>
  <path d="M50 32 L38 40 L50 48 L62 40 Z" fill="#1a1a5c"/>
  <path d="M50 48 L50 64 L38 56 L38 40 Z" fill="#2a2a7c"/>
  <path d="M50 48 L50 64 L62 56 L62 40 Z" fill="#0a0a4c"/>
  <path d="M50 32 L38 40 L50 48 L62 40 Z" fill="#1a1a5c" stroke="white" stroke-width="2" fill="none"/>
  <path d="M38 40 L38 56 L50 64 L62 56 L62 40" fill="none" stroke="white" stroke-width="2"/>
  <path d="M50 48 L50 64" stroke="white" stroke-width="2"/>
</svg>