<svg xmlns="http://www.w3.org/2000/svg" viewBox="0 0 32 32">
  <rect width="32" height="32" fill="#1a1a5c" rx="4"/>
  <path d="M16 4c-5 0-9 4-9 9c0 3 1.5 5.5 4 7v2c0 .5.5 1 1 1h8c.5 0 1-.5 1-1v-2c2.5-1.5 4-4 4-7c0-5-4-9-9-9z" fill="white"/>
  <rect x="11" y="24" width="10" height="2" rx="1" fill="white"/>
  <rect x="12" y="27" width="8" height="2" rx="1" fill="white"/>
  <path d="M16 9l-4 2.5v5l4 2.5l4-2.5v-5z" fill="none" stroke="#1a1a5c" stroke-width="1.5"/>
  <path d="M12 11.5l4 2.5l4-2.5" fill="none" stroke="#1a1a5c" stroke-width="1.5"/>
  <path d="M16 14v5" stroke="#1a1a5c" stroke-width="1.5"/>
</svg>